<svg width="120" height="120" viewBox="0 0 120 120" fill="none" xmlns="http://www.w3.org/2000/svg">
<path d="M119.671 35.1536C119.396 33.5675 118.71 31.8008 117.728 30.2687V30.2665C116.404 28.204 114.546 26.5688 112.436 26.3786C109.194 26.0877 106.255 28.3964 104.26 31.0242C103.76 31.6835 103.291 32.3709 102.837 33.0678C101.481 35.1489 100.236 37.3144 98.5013 39.0671C95.3194 42.2814 91.5915 44.271 87.2122 45.2001C82.8327 46.1293 77.7536 45.104 73.6218 46.8518C69.4902 48.5999 66.1041 52.6237 63.9339 56.624C60.284 63.3529 58.9167 71.1611 58.7929 78.6292V78.6338C58.7836 79.157 58.7814 79.6756 58.786 80.1942C58.8342 88.1267 61.0503 96.0899 65.4342 102.636C70.7291 110.545 79.9535 118.492 89.325 118.567C92.2844 118.59 94.9294 118.25 97.3107 117.626C97.531 117.57 97.5997 117.354 97.5447 117.18C97.5058 117.053 97.398 116.948 97.2305 116.943C71.4126 116.375 77.7466 94.3348 82.8327 89.4688C84.6426 87.7372 87.0997 87.9179 89.7241 88.7766C90.8643 89.1496 92.0343 89.6495 93.1974 90.1749L93.1997 90.1773C94.5601 90.7921 95.9113 91.442 97.1868 91.9652C100.034 93.1336 102.516 93.6733 103.943 91.7963C107.891 86.597 107.831 88.7368 109.566 84.7012C110.543 82.4253 107.767 80.9848 105.468 79.8047C105.267 79.7015 105.377 79.3893 105.597 79.4363C114.89 81.447 113.184 74.6992 113.184 74.6992C116.414 74.8823 119.823 72.2217 118.029 66.992C116.235 61.7622 116.235 57.2668 116.235 57.2668C116.609 51.7202 118.111 50.3289 119.196 44.8811C119.931 41.1788 120.318 38.8724 119.671 35.1536ZM110.35 57.4662C110.213 57.5108 110.073 57.5531 109.935 57.5929C109.694 57.6609 109.524 57.8838 109.524 58.1396V60.1526C109.524 60.6899 109.079 61.124 108.545 61.0888C108.059 61.0559 107.689 60.6196 107.689 60.1197V58.1725C107.689 58.048 107.591 57.9472 107.469 57.9472C106.957 57.9472 106.45 57.9002 105.948 57.8087C105.845 57.79 105.744 57.8462 105.705 57.9472L104.893 60.1221C104.753 60.4952 104.404 60.7252 104.035 60.7252C103.913 60.7252 103.789 60.6993 103.67 60.6477C103.216 60.446 103.014 59.8946 103.193 59.4206L103.787 57.83C103.913 57.4921 103.771 57.112 103.454 56.95C103.264 56.8538 103.076 56.7506 102.888 56.638C102.599 56.4668 102.229 56.537 102.016 56.7998L100.617 58.529C100.435 58.7519 100.174 58.8693 99.9099 58.8693C99.7035 58.8693 99.4969 58.7989 99.325 58.6533C98.935 58.3249 98.88 57.7314 99.2033 57.3325L100.649 55.547C100.809 55.3475 100.791 55.0566 100.61 54.8783C100.389 54.6649 100.181 54.4513 99.9857 54.2378C99.8297 54.0666 99.5796 54.0337 99.3846 54.1581L97.7924 55.1716C97.6433 55.2654 97.476 55.3124 97.3107 55.3124C96.9965 55.3124 96.6867 55.1481 96.517 54.8456C96.2646 54.4021 96.4297 53.8319 96.8542 53.5597L98.1526 52.7339C98.3797 52.5884 98.4486 52.281 98.3017 52.0489C98.077 51.6992 97.9554 51.4717 97.9393 51.4458C97.6961 50.9906 97.8613 50.4205 98.304 50.1717C98.7468 49.9232 99.3042 50.0896 99.5497 50.5425C99.5658 50.573 100.589 52.443 102.397 53.9961C103.379 54.8384 104.39 55.4226 105.43 55.7534C105.464 55.7629 105.501 55.7723 105.535 55.7864L105.537 55.7886C106.925 56.204 108.357 56.1664 109.823 55.6713C110.321 55.5047 110.86 55.7934 110.997 56.319C111.119 56.8093 110.821 57.309 110.35 57.4662ZM112.057 51.9338C112.043 51.9338 112.03 51.9338 112.016 51.9338C111.53 51.9338 111.123 51.5397 111.1 51.0376C111.036 49.5337 110.502 48.4122 109.472 47.6027C106.15 44.996 99.0084 46.5728 98.9372 46.589C98.444 46.6994 97.953 46.3826 97.843 45.8759C97.7352 45.369 98.0448 44.8693 98.5404 44.7566C98.8661 44.684 106.586 42.9758 110.587 46.1128C112.053 47.2624 112.842 48.8908 112.931 50.9531C112.956 51.4717 112.564 51.9104 112.057 51.9338Z" fill="#C28565"/>
<path d="M97.5454 117.178C92.3218 117.405 84.8086 116.572 78.7362 111.258C69.3234 103.018 66.8205 87.0288 74.0332 73.0757C74.3751 72.4142 75.3272 72.4915 75.5656 73.2C76.9055 77.1746 80.5163 84.4315 89.7248 88.7767C87.1004 87.9202 84.6435 87.7373 82.8334 89.4689C77.7474 94.3325 71.4133 116.373 97.2311 116.943C97.3986 116.945 97.5065 117.051 97.5454 117.178Z" fill="#8D411A"/>
<path d="M82.7649 119.998C78.0001 119.144 73.2169 117.354 70.0259 115.38C68.1744 114.235 66.502 112.842 64.8916 111.361C61.6065 107.575 58.677 103.459 55.5065 99.5668C51.5124 94.6633 46.9977 90.0107 41.3817 87.2235C35.4676 84.2883 28.5967 83.5563 22.7124 80.7196C24.745 82.4418 27.234 83.6713 29.7322 84.6143C33.497 86.0361 37.4542 86.9653 41.0261 88.8376C46.2131 91.5592 50.26 96.0992 53.7881 100.85C54.2104 101.418 54.6256 101.99 55.0385 102.565C55.1051 102.659 54.9972 102.779 54.9009 102.716C48.7022 98.619 41.4552 96.2963 34.3526 94.0815C27.7135 92.012 20.9436 89.9051 14.9743 86.3788C13.5612 85.5459 12.1939 84.6332 10.8817 83.6195C4.76107 78.8991 0.0581354 71.5271 0.00537109 63.8197C4.10033 66.6001 9.18405 68.4184 13.6575 69.4905C21.5813 71.391 29.9616 71.7453 37.3533 75.2295C44.8526 78.7629 50.8128 85.0391 55.6144 91.9604C56.0709 92.6197 56.5182 93.2838 56.9541 93.9524C58.8672 96.8852 60.6522 99.8672 62.5104 102.713C62.5127 102.718 62.5149 102.723 62.5195 102.725V102.727C65.8207 107.788 69.3537 112.422 74.2561 115.61C76.0386 116.77 78.1629 117.922 80.5144 118.912C81.2599 119.226 82.0309 119.524 82.8177 119.798C82.9278 119.845 82.8842 120.021 82.7649 119.998Z" fill="#C28565"/>
<path d="M63.9005 114.409C58.2732 111.026 52.3911 107.943 46.1717 107.218C40.6498 106.575 34.9973 105.958 30.0031 103.569C32.6343 105.519 36.1947 106.676 39.2575 107.316C42.9555 108.091 46.7935 108.543 50.4182 109.623C52.9577 110.381 56.5365 112.175 60.0557 114.135C60.1589 114.193 60.1154 114.357 59.9983 114.35C58.5852 114.282 57.1629 114.32 55.7657 114.423C51.329 114.754 46.9106 115.66 42.4668 115.434C36.5847 115.136 30.8244 112.781 26.3485 108.867C26.1031 108.654 25.8622 108.433 25.6236 108.21C21.8384 104.642 19.1084 99.9259 17.8237 94.8298C18.3306 95.1019 18.8492 95.3554 19.3813 95.5899C22.6642 97.0423 26.3463 97.7883 29.9136 98.2294C36.2108 99.0108 42.7536 99.1515 48.5163 101.859C49.8951 102.507 51.1935 103.286 52.4393 104.151C55.6557 106.394 58.5094 109.236 61.3886 111.948C62.2327 112.743 63.0931 113.536 63.9717 114.301C64.0291 114.357 63.967 114.449 63.9005 114.409Z" fill="#C28565"/>
<path d="M67.2397 42.2744C67.0561 44.1608 65.7875 45.8407 63.904 46.4319C61.7498 47.1053 59.488 46.1362 58.4073 44.2217C58.2285 43.9097 58.084 43.5696 57.9762 43.2082C57.2099 40.6438 58.6207 37.9292 61.1282 37.1456C63.6357 36.3619 66.29 37.8048 67.0561 40.3693C67.2465 41.0052 67.3016 41.6503 67.2397 42.2744Z" fill="#C28565"/>
<path d="M79.8353 21.2592C79.5991 21.9466 79.3191 22.5941 78.991 23.1807C75.8321 28.8281 71.1223 31.0311 67.4403 32.3146C66.596 29.1307 65.8688 24.9967 67.2476 20.3487C67.532 19.3915 67.9059 18.4131 68.3854 17.4137C71.0741 11.832 80.2573 6.80636 80.8011 6.61397C80.9341 7.12076 81.7921 15.5977 79.8353 21.2592Z" fill="#C28565"/>
<path d="M67.9673 9.15029C67.9282 9.26525 67.8893 9.38259 67.8433 9.49521C67.2768 10.91 66.1549 12.0151 65.2074 13.2069C64.5008 11.8508 63.6039 10.5487 63.3125 9.04942C63.1083 8.00066 63.2161 6.94017 63.5029 5.91017C63.7829 4.90363 64.2325 3.92762 64.7326 3.01493C65.1546 2.2477 65.6136 1.4922 66.0493 0.729674C66.187 0.488013 66.3224 0.244008 66.4508 0C66.3843 0.703869 66.3178 1.42886 66.2466 2.17497C66.1182 3.56393 65.9806 5.01859 65.8383 6.52253C65.7948 6.98474 65.7512 7.45162 65.7075 7.92322C65.7534 7.45162 65.7948 6.98474 65.8383 6.52253C65.9806 5.01859 66.1158 3.56158 66.2466 2.17497C66.3178 1.42886 66.3843 0.703869 66.4508 0C66.5312 0.265125 66.6183 0.530251 66.7078 0.795375C66.9922 1.63063 67.3042 2.45885 67.5726 3.29647C68.1829 5.18751 68.5774 7.28035 67.9673 9.15029Z" fill="#C28565"/>
<path d="M99.7656 30.1395C99.5086 30.5947 94.2344 37.2321 88.9282 39.8107C88.2927 40.1203 87.6574 40.369 87.031 40.5449C80.8919 42.2554 76.04 40.4066 72.5483 38.6515C73.6244 36.7323 75.0353 34.5456 77.1114 32.6241C78.7678 31.092 80.8462 29.7266 83.5187 28.7998C89.2793 26.796 99.2472 29.8838 99.7656 30.1395Z" fill="#C28565"/>
<path d="M93.3977 15.3115C92.5627 15.5368 91.7161 15.7362 90.888 15.9756C88.8991 16.548 86.8618 17.4583 85.7125 19.2158C85.4167 19.6685 85.1917 20.1588 85.0059 20.6727L85.0037 20.675C84.6687 21.5971 84.4577 22.5824 84.1777 23.528C85.6712 23.3708 87.229 23.4014 88.6076 22.8101C89.4703 22.4395 90.2021 21.8552 90.8261 21.1466C91.5853 20.2927 92.1934 19.265 92.7027 18.2326C93.0903 17.4466 93.4436 16.6348 93.8199 15.8395C93.9392 15.5884 94.0608 15.3374 94.1846 15.091C93.9254 15.1661 93.6639 15.2388 93.3977 15.3115ZM92.7715 16.2805C93.0123 16.0764 93.2532 15.8723 93.4896 15.6752C93.2532 15.8747 93.0147 16.0764 92.7715 16.2805Z" fill="#C28565"/>
<path d="M56.6458 66.1614C53.9571 71.743 44.7714 76.7688 44.2301 76.9611C44.0833 76.3933 43.0211 65.7954 46.0402 60.3944C49.1991 54.747 53.9065 52.5438 57.5886 51.2628L57.5909 51.2605C58.6095 55.1012 59.456 60.324 56.6458 66.1614Z" fill="#C28565"/>
<path d="M34.5698 39.0343C33.2438 39.7592 31.9706 40.6743 30.5046 40.9723C28.479 41.3852 26.4097 40.5547 24.6066 39.5199C23.854 39.0907 23.1175 38.6191 22.372 38.1732C22.1358 38.0324 21.8971 37.8941 21.6587 37.7626C21.9179 37.6783 22.1771 37.5889 22.4363 37.4976C23.253 37.2067 24.0628 36.8875 24.8795 36.613C26.841 35.9513 29.0296 35.5385 30.9405 36.3385C32.3216 36.918 33.4021 38.0629 34.5652 39.0319C34.5698 39.0343 34.5698 39.0343 34.5698 39.0343Z" fill="#C28565"/>
<path d="M52.4824 44.9255C50.5509 48.3767 47.5365 52.6845 41.5122 54.7773C35.7516 56.7786 25.7838 53.691 25.2676 53.4352C25.5544 52.926 32.1316 44.6651 38.0022 43.0296C44.1388 41.3193 48.9909 43.1658 52.4802 44.9231L52.4824 44.9255Z" fill="#C28565"/>
<path d="M36.4233 60.7673C34.5169 61.5838 33.2552 63.4561 32.326 65.3447C31.9384 66.1307 31.5851 66.9426 31.2088 67.7379C31.0895 67.989 30.968 68.24 30.8418 68.4863C31.1032 68.409 31.3671 68.3339 31.6309 68.2635C32.4659 68.0382 33.3124 67.8365 34.1406 67.5995C36.1297 67.0247 38.1668 66.1167 39.3138 64.3594C40.1444 63.0877 40.4127 61.5205 40.8486 60.0493V60.0471C39.3573 60.2089 37.7997 60.1784 36.4233 60.7673ZM31.7732 67.7051C32.0876 67.4399 32.4064 67.1701 32.7321 66.8957C32.4064 67.1725 32.0852 67.4423 31.7732 67.7051Z" fill="#C28565"/>
<path d="M53.2528 36.7488C49.4996 37.7906 44.3906 38.6587 38.6829 35.7823C36.5517 34.71 34.5054 32.6218 32.7871 30.4445V30.4423C30.1099 27.0425 28.2402 23.4247 28.1255 23.0844C28.6807 22.9342 39.0431 21.8481 44.3241 24.9357C45.7763 25.7849 46.9945 26.7422 48.0244 27.7629C50.9128 30.6276 52.3283 33.9734 53.2528 36.7488Z" fill="#C28565"/>
<path d="M44.1063 15.5133C44.0604 15.3749 44.0122 15.2388 43.9572 15.1027C43.1588 13.1554 41.3281 11.8649 39.4815 10.9147C38.713 10.5182 37.9191 10.1569 37.1415 9.77211C36.896 9.6501 36.6505 9.52575 36.4097 9.39906C36.4854 9.66653 36.5588 9.93634 36.63 10.2061C36.8501 11.0602 37.0452 11.926 37.2792 12.7753C37.5085 13.6129 37.7976 14.4622 38.1761 15.2505C38.713 16.3744 39.4356 17.3786 40.4449 18.0684C41.6883 18.9154 43.2231 19.1899 44.6592 19.638V19.6356C44.5193 18.2513 44.5284 16.8178 44.1063 15.5133Z" fill="#C28565"/>
<path d="M59.4469 31.5262C56.0723 29.5483 51.8603 26.4677 49.814 20.3066C49.4193 19.1194 49.2267 17.7609 49.1739 16.3391C48.9606 10.7011 50.9265 4.1129 51.1261 3.69057C51.6126 3.97915 59.3735 10.4383 61.1927 16.3414C61.2294 16.4658 61.2661 16.5901 61.2982 16.7121C62.9706 22.993 61.1651 27.9552 59.4469 31.5262Z" fill="#C28565"/>
<path d="M55.6089 91.9627C46.9303 80.5858 37.4534 75.6799 26.8845 74.1454C23.0671 73.5917 16.3546 72.4022 12.5326 71.8601C9.64436 71.4519 6.74461 70.781 4.09723 69.5609C6.1642 76.0224 9.99538 81.8669 14.969 86.381C13.5558 85.548 12.1885 84.6353 10.8763 83.6218C4.75564 78.9012 0.0527642 71.5294 0 63.822C4.09497 66.6022 9.17862 68.4206 13.6521 69.4928C21.5759 71.3933 29.9563 71.7475 37.3478 75.2318C44.8495 78.7651 50.8074 85.0389 55.6089 91.9627Z" fill="#8D411A"/>
<path d="M62.5148 102.732C62.5124 102.727 62.5078 102.723 62.5054 102.718C62.5078 102.723 62.51 102.727 62.5148 102.73V102.732Z" fill="#8D411A"/>
<path d="M45.6504 101.442C37.3733 99.2925 28.3277 100.836 20.3579 97.7956C21.3719 101.547 23.3403 104.989 25.6986 108.051C25.9097 108.326 26.1277 108.6 26.3456 108.87C26.1001 108.656 25.8593 108.436 25.6206 108.213C21.8355 104.644 19.1055 99.9284 17.8208 94.8323C18.3277 95.1045 18.8463 95.3579 19.3784 95.5926C22.6613 97.0449 26.3432 97.791 29.9106 98.2321C36.2079 99.0134 42.7507 99.1542 48.5134 101.862C49.8922 102.509 51.1906 103.288 52.4364 104.154C50.2959 102.971 48.0111 102.054 45.6504 101.442Z" fill="#8D411A"/>
<path d="M117.728 30.2684C117.487 30.1347 117.24 30.015 116.985 29.9048C113.899 28.5815 110.105 29.2033 107.575 31.4463C105.228 33.5274 103.872 36.514 102.145 39.1559C98.8295 44.2285 93.3604 47.6305 87.3475 48.081C81.7706 48.4986 76.2509 48.6863 71.5274 51.7482C66.3979 55.0751 63.0713 60.7576 61.3186 66.7054C60.2014 70.4898 59.3527 74.5652 58.793 78.6265C58.9167 71.1586 60.2841 63.3503 63.9339 56.6212C66.1042 52.621 69.4903 48.5996 73.6219 46.8493C77.7537 45.1012 82.8328 46.1266 87.2123 45.1974C91.5916 44.2684 95.3195 42.2788 98.5014 39.0644C100.236 37.3141 101.481 35.1462 102.837 33.0651C103.291 32.3684 103.757 31.681 104.26 31.0216C106.256 28.3938 109.194 26.0852 112.436 26.3761C114.546 26.5708 116.405 28.2061 117.728 30.2684Z" fill="#8D411A"/>
<path d="M57.5862 51.2628C57.3935 51.3873 44.9709 59.3925 44.2276 76.9612C44.0809 76.3934 43.0187 65.7953 46.0377 60.3943C49.1991 54.7469 53.9065 52.5439 57.5862 51.2628Z" fill="#8D411A"/>
<path d="M40.853 60.0496C40.853 60.0496 35.1315 62.5554 30.8438 68.489C30.9699 68.2427 31.0915 67.9917 31.2108 67.7406C31.5871 66.9451 31.9404 66.1334 32.3282 65.3474C33.2571 63.461 34.5188 61.5887 36.4253 60.7699C37.7995 60.1787 39.3572 60.2092 40.853 60.0496Z" fill="#8D411A"/>
<path d="M52.4797 44.9232C52.2274 44.8832 38.5959 42.7316 25.2695 53.4351C25.5563 52.9262 32.1334 44.665 38.0039 43.0298C44.1385 41.3216 48.9905 43.1681 52.4797 44.9232Z" fill="#8D411A"/>
<path d="M34.5674 39.0343C30.8144 36.9907 21.6587 37.765 21.6587 37.765C21.9179 37.6805 22.1771 37.5914 22.4363 37.4998C23.253 37.2089 24.0628 36.8899 24.8795 36.6152C26.841 35.9537 29.0296 35.5407 30.9405 36.3408C32.3216 36.918 33.4045 38.0652 34.5674 39.0343Z" fill="#8D411A"/>
<path d="M61.1921 16.3438C58.9805 12.2332 55.622 8.76314 51.6027 6.49433C50.4351 9.66878 49.6206 12.9793 49.171 16.3391C48.9575 10.7011 50.9236 4.1129 51.1232 3.69057C51.6142 3.9815 59.3729 10.4383 61.1921 16.3438Z" fill="#8D411A"/>
<path d="M79.834 21.2592C80.2493 17.3902 80.1369 13.4627 79.4968 9.62423C74.3901 11.6443 70.0108 15.5156 67.2485 20.3465C67.5331 19.3893 67.907 18.4109 68.3865 17.4113C71.0752 11.8297 80.2584 6.80407 80.8022 6.61168C80.9328 7.1208 81.7908 15.5977 79.834 21.2592Z" fill="#8D411A"/>
<path d="M99.7655 30.1399C99.5085 30.595 94.2345 37.2326 88.9281 39.811C90.1922 38.9921 91.3622 38.0067 92.4151 36.9204C94.138 35.1514 95.5857 33.1267 96.9117 31.022C92.6285 29.4219 87.8913 29.1051 83.443 30.1352C81.2314 30.6466 79.0934 31.4912 77.1113 32.6222C78.7677 31.0901 80.8461 29.7245 83.5186 28.7978C89.2792 26.7965 99.2471 29.8841 99.7655 30.1399Z" fill="#8D411A"/>
<path d="M48.022 27.7653C46.7879 27.0684 45.5927 26.3527 44.2552 25.8178C41.0801 24.5486 37.6574 23.9268 34.2506 23.9995C32.7664 24.03 31.2866 24.1966 29.8322 24.497C30.3161 26.2238 31.3487 27.9412 32.202 29.4475C32.3901 29.783 32.5852 30.1138 32.7847 30.4423C30.1075 27.0425 28.2377 23.4247 28.123 23.0844C28.6783 22.9342 39.0407 21.8481 44.3217 24.9357C45.7716 25.7873 46.992 26.7446 48.022 27.7653Z" fill="#8D411A"/>
<path d="M37.6075 10.8841C37.5158 10.8559 37.4217 10.8278 37.3276 10.7996C37.5961 12.2168 37.8667 13.6315 38.1352 15.0486C38.1467 15.1144 38.1604 15.18 38.1741 15.2457C37.7956 14.4574 37.509 13.6081 37.2772 12.7705C37.0432 11.9211 36.8481 11.0553 36.628 10.2013C36.5591 9.93152 36.4857 9.6617 36.4077 9.39424C36.6486 9.52094 36.8941 9.64528 37.1395 9.76729C37.9173 10.1521 38.711 10.5134 39.4795 10.9099C41.3239 11.8601 43.1569 13.1506 43.9552 15.0979C44.0104 15.234 44.0608 15.3701 44.1044 15.5085C42.4756 13.3383 40.1723 11.6912 37.6075 10.8841Z" fill="#8D411A"/>
<path d="M67.5755 3.29877C67.3071 2.46117 66.9951 1.63294 66.7107 0.797678C66.6212 0.5349 66.5339 0.269774 66.4537 0.00230408L66.4515 0.00700112V0.00230408C66.3229 0.246312 66.1876 0.490315 66.05 0.731978C65.6164 1.4945 65.1553 2.24999 64.7331 3.0172C64.2352 3.92753 63.7834 4.90593 63.5034 5.91247C64.1068 4.46719 65.0519 3.16737 66.2449 2.17726C66.2633 2.16084 66.2816 2.14677 66.3001 2.13035C67.4631 4.25837 68.0435 6.71486 67.9655 9.15024C68.578 7.2803 68.1834 5.18748 67.5755 3.29877Z" fill="#8D411A"/>
<path d="M94.1864 15.0862C94.0627 15.3326 93.9411 15.5836 93.8218 15.8347C93.4455 16.63 93.0922 17.4418 92.7044 18.2278C92.1953 19.2602 91.5872 20.2877 90.828 21.1418C91.6928 19.6238 92.3489 17.9815 92.7711 16.2804V16.2781C92.7826 16.2312 92.7939 16.1843 92.8078 16.1373C92.7963 16.1819 91.5437 16.5878 91.4175 16.6183C90.9818 16.7216 90.2201 17.0125 89.8003 17.1674C88.2816 17.7304 87.2835 18.2138 86.1228 19.3588C85.8291 19.6473 85.5516 19.9546 85.29 20.2761C85.2074 20.377 85.1134 20.5505 85.0078 20.6656C85.1936 20.154 85.4186 19.6613 85.7144 19.2086C86.8637 17.4513 88.901 16.5433 90.8899 15.9684C91.7181 15.7291 92.5646 15.5297 93.3996 15.3044C93.6634 15.2387 93.925 15.166 94.1864 15.0862Z" fill="#8D411A"/>
<path d="M67.2397 42.2744C67.1846 42.0444 67.1663 41.7583 67.1181 41.5776C67.0264 41.2327 66.9186 40.8924 66.7832 40.5615C66.4804 39.8179 66.0308 39.1186 65.3975 38.64C64.7896 38.1778 64.0372 37.9385 63.2824 37.8893C61.4173 37.7672 59.5269 38.8747 58.6873 40.585C58.139 41.7019 58.061 43.0297 58.4075 44.2241C58.2285 43.9121 58.084 43.5718 57.9762 43.2104C57.2099 40.646 58.6207 37.9315 61.1282 37.1479C63.6357 36.3643 66.29 37.8072 67.0562 40.3716C67.2465 41.005 67.3017 41.6503 67.2397 42.2744Z" fill="#8D411A"/>
<path d="M62.5139 45.1226C64.726 45.1226 66.5193 43.2885 66.5193 41.0262C66.5193 38.7637 64.726 36.9296 62.5139 36.9296C60.3018 36.9296 58.5083 38.7637 58.5083 41.0262C58.5083 43.2885 60.3018 45.1226 62.5139 45.1226Z" fill="#8D411A"/>
</svg>
